<svg width="14" height="14" viewBox="0 0 14 14" fill="none" xmlns="http://www.w3.org/2000/svg">
<path d="M13.8428 4.34667C13.6404 2.08359 12.0636 0.441677 10.0903 0.441677C8.77565 0.441677 7.57192 1.16037 6.89459 2.31223C6.22339 1.14547 5.06899 0.441406 3.77539 0.441406C1.80233 0.441406 0.22527 2.08332 0.0231368 4.3464C0.00713686 4.44636 -0.058463 4.97244 0.141003 5.83038C0.428469 7.06784 1.09247 8.19342 2.06073 9.08467L6.89139 13.538L11.805 9.08494C12.7732 8.19342 13.4372 7.06811 13.7247 5.83038C13.9242 4.97271 13.8586 4.44663 13.8428 4.34667ZM13.2055 5.70631C12.9431 6.83649 12.3348 7.86617 11.4482 8.68212L6.89459 12.8092L2.41913 8.6832C1.53087 7.86563 0.922868 6.83622 0.660202 5.70604C0.471402 4.89415 0.549002 4.43552 0.549269 4.43254L0.553269 4.40518C0.726602 2.42248 2.08153 0.983202 3.77539 0.983202C5.02526 0.983202 6.12552 1.76339 6.64765 3.019L6.89325 3.61037L7.13885 3.019C7.65272 1.78262 8.81112 0.983473 10.0906 0.983473C11.7842 0.983473 13.1394 2.42275 13.3162 4.43119C13.3167 4.43552 13.3943 4.89443 13.2055 5.70631Z" fill="white"/>
</svg>
