<svg width="17" height="16" viewBox="0 0 17 16" fill="none" xmlns="http://www.w3.org/2000/svg">
<path d="M15.9999 0.425781H0.960006C0.429761 0.425781 0 0.862357 0 1.40101V10.8281C0 11.3667 0.429761 11.8033 0.960006 11.8033H1.94656L3.67968 15.0541L5.41281 11.8033H15.9999C16.5302 11.8033 16.9599 11.3667 16.9599 10.8281V1.40101C16.9599 0.862357 16.5301 0.425781 15.9999 0.425781ZM16.3199 10.1779C16.3199 10.7166 15.8901 11.1532 15.3599 11.1532H4.96636L3.70141 13.3786L2.43679 11.1532H1.59999C1.06975 11.1532 0.639986 10.7166 0.639986 10.1779V2.05114C0.639986 1.51249 1.06975 1.07592 1.59999 1.07592H15.3599C15.8901 1.07592 16.3199 1.51249 16.3199 2.05114V10.1779H16.3199Z" fill="white"/>
</svg>
