<svg width="16" height="10" viewBox="0 0 16 10" fill="none" xmlns="http://www.w3.org/2000/svg">
<g opacity="0.5">
<path d="M13.8003 2.87667C10.5871 -0.328681 5.35937 -0.328681 2.14618 2.87667L0 5.01734L2.19942 7.2114C3.80588 8.81394 5.91612 9.61548 8.02662 9.61548C10.1371 9.61548 12.2471 8.81421 13.8538 7.2114L16 5.07045L13.8003 2.87667ZM13.4714 6.83017C10.469 9.82496 5.58396 9.82496 2.58158 6.83017L0.764311 5.01734L2.52834 3.25762C5.53072 0.262835 10.4158 0.262835 13.4182 3.25762L15.2354 5.07045L13.4714 6.83017Z" fill="white"/>
<path d="M7.71998 2.87891C6.67676 2.87891 5.82812 3.72543 5.82812 4.76605C5.82812 4.91487 5.9492 5.03564 6.09839 5.03564C6.24758 5.03564 6.36866 4.91487 6.36866 4.76605C6.36866 4.02279 6.97486 3.41809 7.71998 3.41809C7.86917 3.41809 7.99025 3.29731 7.99025 3.1485C7.99025 2.99968 7.86944 2.87891 7.71998 2.87891Z" fill="white"/>
<path d="M7.99001 1.53125C6.05275 1.53125 4.47656 3.10357 4.47656 5.03607C4.47656 6.96858 6.05275 8.54089 7.99001 8.54089C9.92728 8.54089 11.5035 6.96858 11.5035 5.03607C11.5035 3.10357 9.92755 1.53125 7.99001 1.53125ZM7.99001 8.00169C6.35085 8.00169 5.01709 6.67121 5.01709 5.03607C5.01709 3.40094 6.35085 2.07045 7.99001 2.07045C9.62917 2.07045 10.9629 3.40094 10.9629 5.03607C10.9629 6.67121 9.62944 8.00169 7.99001 8.00169Z" fill="white"/>
</g>
</svg>
