<svg width="12" height="17" viewBox="0 0 12 17" fill="none" xmlns="http://www.w3.org/2000/svg">
<path opacity="0.5" d="M10.6993 12.0285L8.20722 10.7348C7.97217 10.6126 7.82609 10.3672 7.82609 10.0941V9.17819C7.88583 9.10234 7.9487 9.01593 8.01365 8.92057C8.33687 8.44651 8.59591 7.91881 8.78426 7.34966C9.15235 7.17439 9.3913 6.79649 9.3913 6.36983V5.28625C9.3913 5.02538 9.29739 4.77264 9.13043 4.57516V3.13427C9.14504 2.98528 9.20243 2.09837 8.5847 1.36668C8.04887 0.731979 7.17939 0.410156 6 0.410156C4.82061 0.410156 3.95113 0.731979 3.4153 1.36641C2.79756 2.0981 2.85496 2.98528 2.86957 3.13427V4.57516C2.70261 4.77264 2.6087 5.02538 2.6087 5.28625V6.36983C2.6087 6.69951 2.75296 7.00698 2.99922 7.21204C3.23817 8.19458 3.73826 8.93493 3.91304 9.17251V10.0689C3.91304 10.3311 3.7753 10.5717 3.55383 10.6974L1.22661 12.0155C0.469826 12.4444 0 13.2663 0 14.1613V15.0385C0 16.3241 3.92478 16.6638 6 16.6638C8.07522 16.6638 12 16.3241 12 15.0385V14.2141C12 13.2828 11.5015 12.4452 10.6993 12.0285ZM11.4783 15.0385C11.4783 15.4061 9.5447 16.122 6 16.122C2.4553 16.122 0.521739 15.4061 0.521739 15.0385V14.1613C0.521739 13.4648 0.887478 12.8247 1.47626 12.4915L3.80348 11.1733C4.19296 10.9526 4.43478 10.5291 4.43478 10.0689V8.98017L4.374 8.90486C4.36774 8.89701 3.72835 8.0938 3.48443 6.99099L3.4607 6.88372L3.37174 6.82412C3.2207 6.72281 3.13043 6.55296 3.13043 6.36983V5.28625C3.13043 5.13428 3.19252 4.99261 3.30522 4.88669L3.3913 4.80623V3.1191L3.38896 3.08361C3.38817 3.0763 3.29948 2.32538 3.80765 1.72345C4.23991 1.21146 4.97765 0.951945 6 0.951945C7.0187 0.951945 7.75487 1.20957 8.18765 1.71803C8.69557 2.31427 8.61156 3.07711 8.61104 3.08361L8.6087 4.80623L8.69478 4.88696C8.80748 4.99261 8.86957 5.13428 8.86957 5.28625V6.36983C8.86957 6.60632 8.72035 6.81329 8.49861 6.88426L8.3687 6.92571L8.32696 7.0598C8.15243 7.62353 7.90383 8.14419 7.58765 8.60742C7.51017 8.72147 7.43478 8.82251 7.3693 8.89972L7.30435 8.97665V10.0941C7.30435 10.5736 7.56078 11.0046 7.97374 11.2191L10.4658 12.5129C11.0903 12.8372 11.4783 13.4889 11.4783 14.2141V15.0385Z" fill="white"/>
</svg>
