<svg width="220" height="54" viewBox="0 0 220 54" fill="none" xmlns="http://www.w3.org/2000/svg">
<g opacity="0.8">
<path fill-rule="evenodd" clip-rule="evenodd" d="M86.7148 0H0V53.3981H86.7148V0ZM27.577 23.845H20.0987C19.9874 22.5693 19.5535 21.5784 18.7967 20.8723C18.0622 20.1661 17.0718 19.813 15.8255 19.813C14.4233 19.813 13.3327 20.4281 12.5536 21.6581C11.7747 22.8655 11.3851 24.6423 11.3851 26.9885C11.3851 28.2869 11.4853 29.3917 11.6856 30.3029C11.9082 31.214 12.3868 32.0113 13.1213 32.6947C13.8557 33.3553 14.8572 33.6856 16.1259 33.6856C17.3277 33.6856 18.2625 33.3097 18.9302 32.558C19.5979 31.8063 20.0098 30.7926 20.1654 29.517H27.7439C27.3878 32.6833 26.1748 35.1776 24.105 37C22.0574 38.7996 19.4421 39.6993 16.2594 39.6993C12.2977 39.6993 9.18169 38.5376 6.9115 36.2141C4.6413 33.8906 3.50628 30.7243 3.50628 26.7151C3.50628 22.8199 4.6413 19.6992 6.9115 17.3529C9.20399 14.9838 12.064 13.7993 15.4915 13.7993C19.1195 13.7993 21.9572 14.6764 24.0048 16.4303C26.0747 18.1616 27.2653 20.6331 27.577 23.845ZM37.837 39.0501H30.7593V14.4486H40.2741L44.514 29.7903L48.7539 14.4486H58.2687V39.0501H51.1911V31.533L51.2912 27.7061L51.6918 23.2641H51.6251L47.2515 39.0501H41.7764L37.403 23.2641H37.3362L37.67 26.886L37.837 30.7129V39.0501ZM75.1394 21.5898H82.6177C82.3061 19.2663 81.3046 17.387 79.613 15.952C77.9215 14.5169 75.4955 13.7993 72.335 13.7993C69.2191 13.7993 66.7041 14.4827 64.79 15.8494C62.876 17.1934 61.9189 19.1297 61.9189 21.6581C61.9189 22.9338 62.1748 24.05 62.6867 25.0067C63.1986 25.9407 63.8552 26.681 64.6564 27.2277C65.48 27.7516 66.3814 28.2072 67.3606 28.5944C68.34 28.9589 69.3193 29.255 70.2985 29.4828C71.2779 29.6878 72.1682 29.9042 72.9694 30.132C73.793 30.3371 74.4605 30.6104 74.9725 30.9521C75.4844 31.2938 75.7404 31.7152 75.7404 32.2163C75.7404 32.7858 75.4399 33.23 74.8389 33.5489C74.2603 33.8678 73.4702 34.0273 72.4687 34.0273C71.6005 34.0273 70.855 33.8223 70.2318 33.4123C69.5196 32.9794 69.0856 32.3302 68.9298 31.4646H61.3847C61.4738 33.7653 62.4976 35.7129 64.4562 37.3075C66.4147 38.902 68.9409 39.6993 72.0347 39.6993C75.4622 39.6993 78.1885 38.9818 80.214 37.5467C82.2616 36.0888 83.2854 33.9817 83.2854 31.2255C83.2854 30.0181 83.0294 28.9589 82.5175 28.0478C82.0056 27.1366 81.3379 26.419 80.5145 25.8951C79.7133 25.3712 78.823 24.927 77.8436 24.5625C76.8644 24.198 75.885 23.9019 74.9057 23.6741C73.9265 23.4464 73.025 23.2186 72.2015 22.9908C71.4003 22.763 70.7437 22.4782 70.2318 22.1365C69.7199 21.7949 69.464 21.3734 69.464 20.8723C69.464 19.9383 70.2985 19.4714 71.9678 19.4714C72.769 19.4714 73.4479 19.6194 74.0044 19.9156C74.6498 20.2573 75.0282 20.8154 75.1394 21.5898Z" fill="black"/>
<path d="M93.941 23.5059V10.4047H98.6117V12.3549C98.9867 11.7715 99.541 11.2381 100.275 10.7547C101.025 10.2713 101.823 10.0296 102.671 10.0296C104.758 10.0296 106.152 10.8297 106.853 12.4299C107.978 10.8297 109.453 10.0296 111.279 10.0296C113.072 10.0296 114.336 10.513 115.069 11.4798C115.819 12.4299 116.194 13.855 116.194 15.7552V23.5059H111.108V16.8303C111.108 15.8469 110.985 15.1551 110.741 14.7551C110.496 14.3384 110.048 14.13 109.396 14.13C108.711 14.13 108.238 14.3884 107.978 14.9051C107.733 15.4052 107.611 16.1136 107.611 17.0303V23.5059H102.524V16.8303C102.524 15.8469 102.402 15.1551 102.158 14.7551C101.913 14.3384 101.465 14.13 100.813 14.13C100.128 14.13 99.6551 14.3884 99.3943 14.9051C99.1497 15.4052 99.0274 16.1136 99.0274 17.0303V23.5059H93.941Z" fill="black"/>
<path d="M132.798 23.5059H127.541L127.296 22.1058C126.057 23.2892 124.451 23.8809 122.479 23.8809C121.175 23.8809 120.082 23.5476 119.202 22.8808C118.338 22.1975 117.906 21.214 117.906 19.9306C117.906 18.9972 118.126 18.2304 118.566 17.6304C119.023 17.0136 119.585 16.5886 120.253 16.3552C120.938 16.1219 121.672 15.9302 122.454 15.7802C123.253 15.6302 123.987 15.5302 124.655 15.4802C125.34 15.4302 125.902 15.3051 126.342 15.1051C126.799 14.8884 127.027 14.5967 127.027 14.23C127.027 13.5133 126.473 13.1549 125.364 13.1549C124.272 13.1549 123.677 13.58 123.579 14.4301H118.688C118.688 12.9966 119.243 11.9048 120.351 11.1548C121.46 10.4047 123.237 10.0296 125.682 10.0296C126.677 10.0296 127.533 10.088 128.25 10.2047C128.983 10.3213 129.579 10.5047 130.035 10.7547C130.508 11.0047 130.883 11.2714 131.16 11.5548C131.453 11.8382 131.665 12.2132 131.796 12.6799C131.926 13.1466 132.008 13.5716 132.04 13.955C132.089 14.3384 132.114 14.8384 132.114 15.4552V21.5807C132.114 22.0141 132.146 22.3391 132.211 22.5558C132.293 22.7725 132.489 23.0059 132.798 23.2559V23.5059ZM124.777 20.9307C125.625 20.9307 126.228 20.639 126.587 20.0556C126.946 19.4555 127.092 18.6721 127.027 17.7054C126.652 17.8887 126.098 18.0554 125.364 18.2054C124.631 18.3554 124.076 18.5388 123.701 18.7555C123.343 18.9722 123.163 19.3305 123.163 19.8306C123.163 20.1639 123.31 20.4306 123.604 20.6306C123.897 20.8307 124.288 20.9307 124.777 20.9307Z" fill="black"/>
<path d="M141.528 13.755C140.811 13.7383 140.297 13.9967 139.988 14.5301C139.678 15.0635 139.523 15.7969 139.523 16.7303C139.523 17.4303 139.694 18.0304 140.036 18.5304C140.379 19.0138 140.876 19.2638 141.528 19.2805C142.262 19.3139 142.8 19.0722 143.142 18.5554C143.501 18.0221 143.68 17.3637 143.68 16.5803C143.68 15.7635 143.509 15.0885 143.167 14.5551C142.824 14.0217 142.278 13.755 141.528 13.755ZM135.097 24.181H140.208C140.208 24.3643 140.314 24.556 140.525 24.756C140.77 24.9727 141.137 25.0811 141.626 25.0811C142.36 25.0811 142.881 24.8894 143.191 24.506C143.517 24.1226 143.68 23.4642 143.68 22.5308V21.4557C142.751 22.4058 141.528 22.8808 140.012 22.8808C138.3 22.8808 136.939 22.2891 135.928 21.1057C134.934 19.9056 134.436 18.4304 134.436 16.6803C134.436 15.8302 134.542 15.0301 134.754 14.28C134.966 13.5133 135.284 12.8049 135.708 12.1548C136.132 11.5048 136.727 10.9881 137.493 10.6047C138.259 10.2213 139.148 10.0296 140.159 10.0296C140.925 10.0296 141.65 10.2213 142.335 10.6047C143.02 10.9714 143.59 11.4798 144.047 12.1298V10.4047H148.522V20.9557C148.522 21.7224 148.497 22.3558 148.449 22.8558C148.416 23.3559 148.326 23.8976 148.18 24.481C148.033 25.0811 147.805 25.5644 147.495 25.9311C147.201 26.3145 146.81 26.6729 146.321 27.0062C145.848 27.3396 145.229 27.5813 144.463 27.7313C143.696 27.8813 142.8 27.9563 141.773 27.9563C139.67 27.9563 138.064 27.5896 136.955 26.8562C135.847 26.1395 135.227 25.2477 135.097 24.181Z" fill="black"/>
<path d="M165.419 23.5059H160.162L159.917 22.1058C158.678 23.2892 157.072 23.8809 155.1 23.8809C153.796 23.8809 152.703 23.5476 151.823 22.8808C150.959 22.1975 150.527 21.214 150.527 19.9306C150.527 18.9972 150.747 18.2304 151.187 17.6304C151.644 17.0136 152.206 16.5886 152.875 16.3552C153.559 16.1219 154.293 15.9302 155.075 15.7802C155.874 15.6302 156.608 15.5302 157.276 15.4802C157.961 15.4302 158.523 15.3051 158.964 15.1051C159.42 14.8884 159.648 14.5967 159.648 14.23C159.648 13.5133 159.094 13.1549 157.985 13.1549C156.893 13.1549 156.298 13.58 156.2 14.4301H151.309C151.309 12.9966 151.864 11.9048 152.972 11.1548C154.081 10.4047 155.858 10.0296 158.303 10.0296C159.298 10.0296 160.154 10.088 160.871 10.2047C161.605 10.3213 162.2 10.5047 162.656 10.7547C163.129 11.0047 163.504 11.2714 163.781 11.5548C164.074 11.8382 164.286 12.2132 164.417 12.6799C164.547 13.1466 164.629 13.5716 164.661 13.955C164.71 14.3384 164.735 14.8384 164.735 15.4552V21.5807C164.735 22.0141 164.767 22.3391 164.832 22.5558C164.914 22.7725 165.11 23.0059 165.419 23.2559V23.5059ZM157.398 20.9307C158.246 20.9307 158.849 20.639 159.208 20.0556C159.567 19.4555 159.713 18.6721 159.648 17.7054C159.273 17.8887 158.719 18.0554 157.985 18.2054C157.252 18.3554 156.697 18.5388 156.323 18.7555C155.964 18.9722 155.785 19.3305 155.785 19.8306C155.785 20.1639 155.931 20.4306 156.225 20.6306C156.518 20.8307 156.909 20.9307 157.398 20.9307Z" fill="black"/>
<path d="M179.187 23.5059H166.862V20.0306L172.658 14.205H167.375V10.4047H178.918V14.03L173.318 19.7056H179.187V23.5059Z" fill="black"/>
<path d="M186.417 23.5059H181.33V10.4047H186.417V23.5059ZM181.33 8.72953V5.02918H186.417V8.72953H181.33Z" fill="black"/>
<path d="M189.131 23.5059V10.4047H193.778V12.4549C194.951 10.8381 196.394 10.0296 198.106 10.0296C201.415 10.0296 203.07 11.9048 203.07 15.6552V23.5059H197.984V16.5803C197.984 14.9468 197.389 14.13 196.199 14.13C195.449 14.13 194.927 14.3551 194.634 14.8051C194.356 15.2551 194.218 15.9302 194.218 16.8303V23.5059H189.131Z" fill="black"/>
<path d="M210.113 15.4802H214.734C214.734 14.8801 214.506 14.3551 214.05 13.905C213.61 13.4383 213.088 13.2049 212.485 13.2049C211.735 13.2049 211.148 13.4133 210.724 13.83C210.316 14.23 210.113 14.7801 210.113 15.4802ZM219.821 18.1304H210.113C210.113 18.8805 210.357 19.4972 210.846 19.9806C211.335 20.464 211.93 20.7056 212.631 20.7056C213.544 20.7056 214.18 20.3223 214.539 19.5555H219.405C218.998 21.0557 218.134 22.1558 216.813 22.8558C215.493 23.5392 213.993 23.8809 212.314 23.8809C210.178 23.8809 208.425 23.2809 207.056 22.0808C205.703 20.8807 205.026 19.2138 205.026 17.0803C205.026 14.9634 205.711 13.2633 207.08 11.9798C208.466 10.6797 210.202 10.0296 212.289 10.0296C214.637 10.0296 216.487 10.7797 217.84 12.2799C219.193 13.78 219.853 15.7302 219.821 18.1304Z" fill="black"/>
<path d="M93.941 48.0232V34.9583H98.5253C99.5956 34.9583 100.392 35.0311 100.916 35.1767C101.581 35.3586 102.129 35.7165 102.557 36.2502C102.985 36.7719 103.199 37.4391 103.199 38.2518C103.199 38.7734 103.056 39.2951 102.771 39.8167C102.497 40.3383 102.069 40.7265 101.486 40.9812C103.032 41.5271 103.805 42.5886 103.805 44.1656C103.805 44.6265 103.722 45.0754 103.556 45.5121C103.401 45.9367 103.157 46.343 102.824 46.7312C102.491 47.1194 102.021 47.4348 101.415 47.6774C100.82 47.9079 100.131 48.0232 99.3458 48.0232H93.941ZM95.6534 46.4947H99.0961C101.094 46.4947 102.093 45.7365 102.093 44.2202C102.093 42.7038 101.094 41.9456 99.0961 41.9456H95.6534V46.4947ZM95.6534 40.5263H98.8464C99.881 40.5263 100.577 40.3444 100.933 39.9805C101.302 39.6165 101.486 39.101 101.486 38.4338C101.486 37.7909 101.278 37.3056 100.862 36.9781C100.458 36.6506 99.7858 36.4868 98.8464 36.4868H95.6534V40.5263Z" fill="black"/>
<path d="M106.927 41.4725C106.927 43.0981 107.313 44.3961 108.086 45.3665C108.859 46.337 109.876 46.8222 111.136 46.8222C112.159 46.8222 113.003 46.4765 113.669 45.785C114.335 45.0936 114.734 44.2808 114.864 43.3467H116.523C116.464 43.9411 116.303 44.5234 116.042 45.0936C115.792 45.6637 115.453 46.1975 115.025 46.6948C114.597 47.1922 114.044 47.5925 113.366 47.8958C112.688 48.199 111.945 48.3507 111.136 48.3507C110.625 48.3507 110.12 48.29 109.62 48.1687C109.121 48.0595 108.597 47.8473 108.05 47.5319C107.503 47.2165 107.028 46.8222 106.623 46.3491C106.219 45.8639 105.88 45.2209 105.607 44.4203C105.345 43.6076 105.214 42.6856 105.214 41.6545C105.214 40.6355 105.333 39.7196 105.571 38.9069C105.809 38.082 106.118 37.4087 106.499 36.8871C106.891 36.3655 107.349 35.9348 107.872 35.5952C108.407 35.2434 108.948 34.9947 109.495 34.8491C110.042 34.7036 110.607 34.6308 111.19 34.6308C112.022 34.6308 112.777 34.7642 113.455 35.0311C114.133 35.2859 114.674 35.6255 115.079 36.0501C115.483 36.4747 115.798 36.9235 116.024 37.3966C116.262 37.8697 116.398 38.3489 116.434 38.8341H114.757C114.543 37.9971 114.121 37.342 113.491 36.8689C112.873 36.3958 112.123 36.1593 111.243 36.1593C109.935 36.1593 108.889 36.6445 108.104 37.615C107.319 38.5733 106.927 39.8591 106.927 41.4725Z" fill="black"/>
<path d="M118.712 48.0232V34.9583H128.059V36.4868H120.424V40.5263H127.47V42.0548H120.424V46.4947H128.183V48.0232H118.712Z" fill="black"/>
<path d="M144.439 45.3301C145.248 44.3354 145.652 43.0556 145.652 41.4907C145.652 39.9259 145.248 38.6521 144.439 37.6695C143.642 36.6748 142.56 36.1775 141.193 36.1775C139.825 36.1775 138.737 36.6748 137.928 37.6695C137.132 38.6521 136.733 39.9259 136.733 41.4907C136.733 43.0556 137.132 44.3354 137.928 45.3301C138.737 46.3127 139.825 46.804 141.193 46.804C142.56 46.804 143.642 46.3127 144.439 45.3301ZM147.24 39.6893C147.37 40.2837 147.436 40.8842 147.436 41.4907C147.436 42.0973 147.37 42.7038 147.24 43.3103C147.121 43.9048 146.907 44.5113 146.597 45.13C146.3 45.7486 145.92 46.2945 145.456 46.7676C145.004 47.2407 144.409 47.6289 143.672 47.9322C142.935 48.2233 142.108 48.3689 141.193 48.3689C140.277 48.3689 139.451 48.2233 138.713 47.9322C137.976 47.6289 137.375 47.2407 136.912 46.7676C136.46 46.2945 136.079 45.7486 135.77 45.13C135.473 44.5113 135.259 43.9048 135.128 43.3103C135.009 42.7038 134.949 42.0973 134.949 41.4907C134.949 40.8842 135.009 40.2837 135.128 39.6893C135.259 39.0828 135.473 38.4702 135.77 37.8515C136.079 37.2328 136.46 36.687 136.912 36.2139C137.375 35.7408 137.976 35.3586 138.713 35.0675C139.451 34.7642 140.277 34.6126 141.193 34.6126C142.108 34.6126 142.935 34.7642 143.672 35.0675C144.409 35.3586 145.004 35.7408 145.456 36.2139C145.92 36.687 146.3 37.2328 146.597 37.8515C146.907 38.4702 147.121 39.0828 147.24 39.6893Z" fill="black"/>
<path d="M154.547 48.0232V34.9583H159.737C161.39 34.9583 162.698 35.5406 163.662 36.7051C164.637 37.8697 165.124 39.4042 165.124 41.3088C165.124 41.9274 165.071 42.5401 164.964 43.1466C164.857 43.741 164.673 44.3415 164.411 44.948C164.149 45.5424 163.816 46.064 163.412 46.5129C163.008 46.9617 162.484 47.3256 161.842 47.6046C161.2 47.8837 160.475 48.0232 159.666 48.0232H154.547ZM156.277 36.4686V46.5129H159.63C160.772 46.5129 161.676 46.0701 162.342 45.1846C163.008 44.299 163.341 43.0435 163.341 41.4179C163.341 39.8046 163.002 38.5794 162.324 37.7423C161.646 36.8932 160.707 36.4686 159.506 36.4686H156.277Z" fill="black"/>
<path d="M169.328 34.9583V48.0232H167.598V34.9583H169.328Z" fill="black"/>
<path d="M177.878 42.5461V41.0358H183.497V48.0232H182.373L181.963 46.3309C181.523 46.9496 180.923 47.4469 180.162 47.823C179.412 48.1869 178.604 48.3689 177.736 48.3689C176.106 48.3689 174.798 47.8776 173.811 46.895C173.205 46.3127 172.741 45.6455 172.42 44.8934C172.099 44.1292 171.915 43.5166 171.867 43.0556C171.819 42.5825 171.796 42.0245 171.796 41.3816C171.796 40.5567 171.921 39.756 172.17 38.9797C172.42 38.1912 172.783 37.4694 173.258 36.8143C173.734 36.1471 174.37 35.6134 175.167 35.2131C175.964 34.8128 176.862 34.6126 177.86 34.6126C179.169 34.6126 180.352 34.9886 181.41 35.7408C182.48 36.4929 183.105 37.5543 183.283 38.9251H181.606C181.44 38.2215 181.125 37.6513 180.661 37.2146C180.209 36.7779 179.751 36.4989 179.287 36.3776C178.824 36.2442 178.318 36.1775 177.771 36.1775C176.57 36.1775 175.571 36.6506 174.775 37.5968C173.978 38.5308 173.579 39.8228 173.579 41.4725C173.579 42.1883 173.645 42.8494 173.776 43.4559C173.906 44.0503 174.121 44.6144 174.418 45.1482C174.727 45.6819 175.167 46.1004 175.738 46.4037C176.32 46.707 177.022 46.8586 177.843 46.8586C178.901 46.8586 179.775 46.5796 180.465 46.0216C181.404 45.2573 181.874 44.0989 181.874 42.5461H177.878Z" fill="black"/>
<path d="M188.176 34.9583V48.0232H186.446V34.9583H188.176Z" fill="black"/>
<path d="M189.689 36.5232V34.9583H200.088V36.5232H195.754V48.0232H194.023V36.5232H189.689Z" fill="black"/>
<path d="M206.71 44.2202H201.572L200.235 48.0232H198.451L203.267 34.9583H205.229L209.867 48.0232H207.976L206.71 44.2202ZM202.108 42.6553H206.085L204.195 36.9053H204.159L202.108 42.6553Z" fill="black"/>
<path d="M213.185 34.9583V46.4583H219.677V48.0232H211.454V34.9583H213.185Z" fill="black"/>
</g>
</svg>
