<svg width="500" height="74" viewBox="0 0 500 74" fill="none" xmlns="http://www.w3.org/2000/svg">
<path d="M91.5705 0.99902L52.7089 73.4922L35.1406 40.8852L91.5705 0.99902Z" fill="#144890"/>
<path d="M91.571 0.99902L35.1411 40.8852L17.5724 73.4922L0.00390625 40.8852L91.571 0.99902Z" fill="#144890"/>
<path d="M103.987 72.8398L93.8477 39.5322H100.346L108.02 67.0092H108.244L114.966 39.5322H123.146L130.205 67.0092H130.429L137.991 39.5322H144.378L134.238 72.8398H125.946L119 46.584H118.776C116.647 54.8571 114.295 64.5069 112.222 72.8398H103.987Z" fill="#26252A"/>
<path d="M157.504 39.5322H182.989V44.9797H163.411V52.69H180.911V58.0777H163.411V67.4522H183.754V72.8398H157.504V39.5322Z" fill="#26252A"/>
<path d="M220.247 59.2988C219.304 58.2452 217.807 57.5748 216.367 57.5748H204.064V67.6796H216.091C217.586 67.6796 218.972 67.0091 220.025 66.0633C220.801 65.2372 221.299 63.9562 221.299 62.5674C221.299 61.2983 220.912 60.077 220.247 59.2988ZM218.252 45.8058C217.476 45.0875 216.367 44.7043 215.037 44.7043H204.064V52.4146H215.923C216.922 52.4146 217.864 51.9118 218.418 51.2533C219.083 50.4751 219.36 49.5292 219.36 48.5834C219.36 47.422 218.972 46.4763 218.252 45.8058ZM198.189 72.8398V39.5322H215.37C218.252 39.5322 221.023 40.5378 222.907 42.4175C224.348 43.926 225.179 45.8656 225.179 48.308C225.179 49.5891 224.958 50.7984 224.348 51.9118C223.848 52.7499 223.129 53.5281 222.075 54.1866V54.462C223.461 55.0726 224.57 56.0184 225.401 57.1318C226.509 58.6883 227.064 60.568 227.064 62.6273C227.064 65.5127 225.955 68.0029 224.016 69.7868C221.965 71.7264 219.194 72.8398 216.035 72.8398H198.189Z" fill="#26252A"/>
<path d="M240.846 39.5322H266.967V44.9797H246.899V52.69H264.836V58.0777H246.899V67.4522H267.752V72.8398H240.846V39.5322Z" fill="#26252A"/>
<path d="M287.496 58.4129H297.986C299.863 58.4129 301.629 57.6347 302.679 56.4135C303.837 55.1324 304.445 53.4084 304.445 51.7442C304.445 50.0321 303.837 48.3559 302.788 47.2545C301.684 45.8656 299.752 44.9797 297.709 44.9797H287.496V58.4129ZM308.033 59.0714C306.874 60.568 305.439 61.7413 303.508 62.5674C305.494 65.788 307.758 69.5594 309.746 72.8398H303.01L297.655 63.7885H287.496V72.8398H281.533V39.5322H297.875C301.298 39.5322 304.501 40.8132 306.82 43.088C309.026 45.3149 310.408 48.2482 310.408 51.7442C310.408 54.5218 309.579 57.072 308.033 59.0714Z" fill="#26252A"/>
<path d="M355.033 39.5322V72.8398H349.55L330.004 48.9187V72.8398H324.189V39.5322H329.671L349.328 63.5132V39.5322H355.033Z" fill="#26252A"/>
<path d="M369.469 39.5322H395.59V44.9797H375.522V52.69H393.459V58.0777H375.522V67.4522H396.375V72.8398H369.469V39.5322Z" fill="#26252A"/>
<path d="M406.219 39.5322H437.062V44.8599H424.579V72.8398H418.702V44.8599H406.219V39.5322Z" fill="#26252A"/>
<path d="M454.781 72.8398H448.875V39.5322H454.781V72.8398Z" fill="#26252A"/>
<path d="M477.187 64.5267C479.381 66.759 482.475 68.0913 485.737 68.0913C489.674 68.0913 492.824 66.6511 495.806 64.0346L499.406 67.9833C495.412 71.824 491.419 73.4922 485.737 73.4922C480.562 73.4922 476.23 71.5959 473.025 68.5354C469.762 65.3669 467.906 61.0821 467.906 56.1253C467.906 51.2885 469.762 47.0038 472.912 43.8353C476.006 40.7748 480.507 38.8785 485.737 38.8785C491.419 38.8785 495.412 40.6068 499.406 44.2794L495.806 48.288C492.824 45.6116 489.674 44.2194 485.737 44.2194C482.475 44.2194 479.493 45.4435 477.355 47.5679C475.274 49.6202 473.925 52.7407 473.925 56.1253C473.925 59.6899 475.218 62.5824 477.187 64.5267Z" fill="#26252A"/>
</svg>
