<svg width="424" height="40" viewBox="0 0 424 40" fill="none" xmlns="http://www.w3.org/2000/svg">
<path d="M48 0L18.4192 22.006L9.20933 40L0 22.006L48 0Z" fill="#144890"/>
<path d="M48 0L27.6283 40L18.4192 22.006L48 0Z" fill="#144890"/>
<path d="M85.6791 15.5603L91.6998 34.7414H91.9987L97.1227 15.5603H103.57L108.822 34.7414H109.079L115.227 15.5603H120.821L112.324 39.3966H104.979L100.411 21.5086H100.154L95.5001 39.3966H88.2411L80 15.5603H85.6791Z" fill="#26252A"/>
<path d="M154.113 15.5603V20.431H138.015V24.8276H152.49V29.6983H138.015V34.4397H154.711V39.3966H132.678V15.5603H154.113Z" fill="#26252A"/>
<path d="M182.439 15.5603C183.492 15.5603 184.46 15.7184 185.343 16.0345C186.254 16.3218 187.036 16.7529 187.691 17.3276C188.346 17.8736 188.844 18.5345 189.186 19.3103C189.556 20.0862 189.741 20.9626 189.741 21.9397C189.741 22.8017 189.584 23.592 189.271 24.3103C188.986 25 188.531 25.5603 187.905 25.9914C188.986 26.5661 189.826 27.342 190.424 28.319C191.05 29.296 191.363 30.5172 191.363 31.9828C191.363 33.0172 191.164 33.9799 190.766 34.8707C190.395 35.7615 189.855 36.5517 189.143 37.2414C188.46 37.9023 187.634 38.4339 186.666 38.8362C185.727 39.2098 184.702 39.3966 183.592 39.3966H167.238V15.5603H182.439ZM172.575 24.7414H182.61C183.179 24.7414 183.635 24.5259 183.976 24.0948C184.346 23.6351 184.531 23.1322 184.531 22.5862C184.531 22.069 184.361 21.5805 184.019 21.1207C183.706 20.6322 183.094 20.3879 182.183 20.3879H172.575V24.7414ZM172.575 34.5259H183.421C184.275 34.5259 184.944 34.296 185.428 33.8362C185.912 33.3477 186.154 32.7299 186.154 31.9828C186.154 31.2069 185.912 30.5891 185.428 30.1293C184.944 29.6695 184.318 29.4397 183.549 29.4397H172.575V34.5259Z" fill="#26252A"/>
<path d="M224.901 15.5603V20.431H208.804V24.8276H223.279V29.6983H208.804V34.4397H225.499V39.3966H203.466V15.5603H224.901Z" fill="#26252A"/>
<path d="M251.946 15.5603C253.341 15.5603 254.622 15.7902 255.789 16.25C256.985 16.681 258.01 17.3132 258.864 18.1466C259.746 18.9511 260.43 19.9282 260.913 21.0776C261.426 22.227 261.682 23.5057 261.682 24.9138C261.682 26.7529 261.269 28.3477 260.444 29.6983C259.618 31.0489 258.508 32.0977 257.113 32.8448L260.743 39.3966H254.935L252.16 34.0948H243.364V39.3966H238.026V15.5603H251.946ZM243.364 29.181H251.733C253.099 29.181 254.21 28.8218 255.064 28.1034C255.918 27.3563 256.345 26.2931 256.345 24.9138C256.345 23.5345 255.918 22.4569 255.064 21.681C254.21 20.8764 253.099 20.4741 251.733 20.4741H243.364V29.181Z" fill="#26252A"/>
<path d="M278.709 15.5603L292.843 31.5948V15.5603H298.138V39.3966H293.056L278.923 23.319V39.3966H273.671V15.5603H278.709Z" fill="#26252A"/>
<path d="M332.377 15.5603V20.431H316.279V24.8276H330.754V29.6983H316.279V34.4397H332.975V39.3966H310.941V15.5603H332.377Z" fill="#26252A"/>
<path d="M369.2 15.5603V20.3879H359.593V39.3966H354.255V20.3879H344.648V15.5603H369.2Z" fill="#26252A"/>
<path d="M386.483 15.5603V39.3966H381.146V15.5603H386.483Z" fill="#26252A"/>
<path d="M419.858 23.7931C418.947 22.5 417.865 21.5086 416.613 20.819C415.389 20.1293 413.837 19.7845 411.959 19.7845C410.763 19.7845 409.681 19.9713 408.713 20.3448C407.774 20.6897 406.963 21.2069 406.28 21.8966C405.596 22.5575 405.07 23.3621 404.7 24.3103C404.33 25.2586 404.145 26.3218 404.145 27.5C404.145 28.6494 404.33 29.6983 404.7 30.6466C405.098 31.5948 405.639 32.4138 406.322 33.1034C407.005 33.7644 407.817 34.2816 408.756 34.6552C409.724 35.0287 410.791 35.2155 411.959 35.2155C413.837 35.2155 415.389 34.8707 416.613 34.181C417.865 33.4914 418.947 32.5 419.858 31.2069L424 33.6207C422.776 35.7184 421.168 37.3132 419.175 38.4052C417.182 39.4684 414.805 40 412.044 40C410.165 40 408.415 39.7126 406.792 39.1379C405.169 38.5632 403.775 37.7443 402.607 36.681C401.44 35.5891 400.515 34.2672 399.832 32.7155C399.177 31.1638 398.85 29.4253 398.85 27.5C398.85 25.5747 399.191 23.8362 399.875 22.2845C400.558 20.7328 401.483 19.4253 402.65 18.3621C403.846 17.2701 405.241 16.4368 406.835 15.8621C408.457 15.2874 410.194 15 412.044 15C414.805 15 417.182 15.546 419.175 16.6379C421.168 17.7012 422.776 19.2816 424 21.3793L419.858 23.7931Z" fill="#26252A"/>
</svg>
