<svg width="476" height="204" viewBox="0 0 476 204" fill="none" xmlns="http://www.w3.org/2000/svg">
<path d="M47.2009 18.6639C52.095 16.9413 60.7465 15.1407 72.2751 13.3773C83.7808 11.6174 98.0865 9.90396 114.248 8.34054C146.569 5.21376 186.283 2.68989 225.805 1.59258C265.332 0.495163 304.643 0.82531 336.17 3.40126C351.936 4.68942 365.728 6.53717 376.616 9.04034C387.557 11.5558 395.383 14.6955 399.396 18.4508C406.156 24.7781 411.445 35.0091 415.288 47.548C419.125 60.0668 421.491 74.7865 422.473 89.9843C424.439 120.408 420.851 152.559 412.586 172.619C411.494 175.268 411.576 177.501 413.156 179.024C414.602 180.417 417.04 180.912 419.813 180.956C422.006 180.99 424.585 180.741 427.408 180.284C421.918 182.257 416.737 184.125 412.374 185.711C408.771 187.02 405.723 188.137 403.518 188.961C402.416 189.373 401.52 189.712 400.869 189.967C400.726 190.023 400.593 190.076 400.472 190.124C400.32 190.185 400.186 190.24 400.072 190.288C399.892 190.363 399.699 190.447 399.573 190.521C397.827 191.545 395.053 192.541 391.304 193.485C387.575 194.424 382.948 195.295 377.543 196.096C366.734 197.699 352.868 199.017 336.943 200.055C305.094 202.131 265.07 203.088 224.916 202.994C184.763 202.9 144.497 201.755 112.166 199.632C95.9988 198.57 81.8286 197.264 70.6542 195.724C59.4323 194.178 51.3624 192.412 47.2983 190.48C30.4929 182.491 18.8012 173.822 11.3629 160.651C3.9097 147.454 0.647128 129.597 1.03011 103.061C1.41437 76.4357 3.15286 58.8465 9.65451 46.1584C16.1082 33.5639 27.343 25.6534 47.2009 18.6639Z" stroke="black" stroke-width="2"/>
</svg>
