<svg width="33" height="28" viewBox="0 0 33 28" fill="none" xmlns="http://www.w3.org/2000/svg">
<path d="M0.833571 13.4259L8.24264 16.1916L11.1104 25.4156C11.2939 26.0064 12.0162 26.2247 12.4956 25.8327L16.6256 22.4654C17.0585 22.1126 17.6751 22.0951 18.1275 22.4235L25.5765 27.8324C26.0893 28.2052 26.8159 27.9242 26.9445 27.3043L32.4013 1.05262C32.5417 0.375563 31.8765 -0.189261 31.2319 0.0600803L0.824889 11.7919C0.074507 12.0813 0.0810451 13.1439 0.833571 13.4259ZM10.6482 14.7193L25.1283 5.79976C25.3886 5.63993 25.6563 5.99186 25.4328 6.19918L13.4826 17.3091C13.0625 17.7002 12.7916 18.2235 12.7148 18.7916L12.3077 21.8087C12.2538 22.2116 11.688 22.2516 11.5769 21.8617L10.0113 16.3598C9.83194 15.7323 10.0932 15.0619 10.6482 14.7193Z" fill="#144890"/>
</svg>
