<svg width="33" height="26" viewBox="0 0 33 26" fill="none" xmlns="http://www.w3.org/2000/svg">
<path d="M32.7288 3.078C31.5331 3.6 30.2589 3.946 28.9305 4.114C30.2971 3.302 31.3401 2.026 31.8305 0.488C30.5564 1.244 29.1496 1.778 27.6504 2.076C26.4406 0.794 24.7163 0 22.8352 0C19.1857 0 16.2476 2.948 16.2476 6.562C16.2476 7.082 16.2918 7.582 16.4003 8.058C10.92 7.792 6.07064 5.178 2.81298 1.196C2.24425 2.178 1.91064 3.302 1.91064 4.512C1.91064 6.784 3.0863 8.798 4.83872 9.964C3.77963 9.944 2.74063 9.638 1.8604 9.156C1.8604 9.176 1.8604 9.202 1.8604 9.228C1.8604 12.416 4.14539 15.064 7.14179 15.674C6.60521 15.82 6.0204 15.89 5.41348 15.89C4.99146 15.89 4.56541 15.866 4.16548 15.778C5.01959 18.376 7.44324 20.286 10.3251 20.348C8.08232 22.094 5.23462 23.146 2.1518 23.146C1.6112 23.146 1.09271 23.122 0.574219 23.056C3.49426 24.93 6.9549 26 10.6868 26C22.8172 26 29.449 16 29.449 7.332C29.449 7.042 29.439 6.762 29.4249 6.484C30.7332 5.56 31.8325 4.406 32.7288 3.078Z" fill="#144890"/>
</svg>
