<svg width="25" height="27" viewBox="0 0 25 27" fill="none" xmlns="http://www.w3.org/2000/svg">
<path fill-rule="evenodd" clip-rule="evenodd" d="M15.6223 0H10.2632C5.09185 0 0.884766 4.18686 0.884766 9.33334V13.3333C0.884766 16.9465 2.97863 20.2254 6.24386 21.7677V26.2222C6.24386 26.609 6.73004 26.8112 7.00623 26.5365L10.8947 22.6667H15.6222C20.7935 22.6667 25.0007 18.4798 25.0007 13.3333V9.33334C25.0007 4.18686 20.7935 0 15.6223 0ZM19.6855 16.5654L19.284 14.4008C19.2508 14.2219 19.1116 14.0813 18.9324 14.0456L15.7745 13.4171C15.6279 13.388 15.4767 13.4336 15.3711 13.5386L14.0882 14.8154C11.9266 13.8516 10.7269 12.655 9.67135 10.4115L10.9501 9.13893C11.0557 9.03384 11.1015 8.88313 11.0723 8.73742L10.4407 5.59469C10.4049 5.41643 10.2635 5.27781 10.0838 5.24479L7.90877 4.84526C7.84922 4.83437 7.78789 4.83552 7.72876 4.8489C7.15446 4.97873 6.63045 5.26671 6.21334 5.68192C5.4911 6.40068 5.21507 7.44951 5.41517 8.71502C5.75107 10.8401 6.79722 13.7974 8.72734 15.7259L8.75372 15.752C10.6901 17.6715 13.6617 18.7127 15.7972 19.047C16.0662 19.0892 16.3252 19.1101 16.5737 19.1101C17.4997 19.1101 18.2754 18.8194 18.845 18.2527C19.2621 17.8375 19.5516 17.316 19.682 16.7446C19.6952 16.6857 19.6965 16.6247 19.6855 16.5654ZM13.3892 8.00009C13.3892 7.75465 13.5891 7.55566 13.8357 7.55566C15.3133 7.55566 16.5153 8.75187 16.5152 10.2223C16.5152 10.4645 16.312 10.6667 16.0687 10.6667C15.8254 10.6667 15.6221 10.4645 15.6221 10.2223C15.6221 9.24201 14.8208 8.44451 13.8357 8.44451C13.5891 8.44451 13.3892 8.24552 13.3892 8.00009ZM13.8362 5.77734C13.671 5.77734 13.5043 5.78646 13.3406 5.80442C13.0955 5.83135 12.9187 6.05095 12.9457 6.29499C12.9728 6.53902 13.1939 6.71452 13.4387 6.68801C13.5699 6.67358 13.7036 6.66624 13.8362 6.66624C15.8063 6.66624 17.409 8.26124 17.409 10.2218C17.409 10.3538 17.4016 10.4869 17.3871 10.6175C17.3604 10.8582 17.5401 11.0816 17.782 11.1081C18.0239 11.1346 18.2482 10.9558 18.2749 10.715C18.293 10.5522 18.3022 10.3862 18.3022 10.2218C18.3022 7.77115 16.2988 5.77734 13.8362 5.77734ZM13.3559 4.01856C13.515 4.00653 13.6766 4.00049 13.8362 4.00049C17.2838 4.00049 20.0885 6.79175 20.0885 10.2227C20.0885 10.7076 20.0322 11.1906 19.9212 11.6583C19.8638 11.8999 19.6091 12.0502 19.3683 11.9846C19.1395 11.9222 18.9974 11.6835 19.0519 11.4538C19.1471 11.053 19.1953 10.6388 19.1953 10.2227C19.1953 7.28189 16.7913 4.88939 13.8362 4.88939C13.699 4.88939 13.5601 4.89459 13.4234 4.90496C13.1781 4.9235 12.9629 4.74008 12.9443 4.49532C12.9257 4.25061 13.11 4.0371 13.3559 4.01856Z" fill="#144890"/>
</svg>
