<svg width="34" height="32" viewBox="0 0 34 32" fill="none" xmlns="http://www.w3.org/2000/svg">
<path d="M31.4013 0H2.66738C1.72258 0 0.957031 0.762213 0.957031 1.70213V30.2979C0.957031 31.2378 1.72258 32 2.66738 32H31.4013C32.3461 32 33.1116 31.2378 33.1116 30.2979V1.70213C33.1116 0.762213 32.3461 0 31.4013 0ZM26.5675 18.0231C27.4439 18.8742 28.3705 19.6756 29.1576 20.6162C29.5059 21.0315 29.8342 21.4604 30.0843 21.9435C30.4404 22.6325 30.1188 23.3893 29.4983 23.4298L25.648 23.4288C24.6539 23.5101 23.8624 23.1118 23.1947 22.4354C22.6627 21.8958 22.1681 21.3198 21.6554 20.7626C21.4463 20.5334 21.2247 20.318 20.9627 20.1477C20.4379 19.8087 19.9819 19.9122 19.6806 20.4572C19.3741 21.0121 19.3033 21.6276 19.2752 22.2461C19.2325 23.15 18.9588 23.3859 18.0479 23.4277C16.1015 23.519 14.254 23.2249 12.5378 22.2489C11.0228 21.3876 9.8512 20.1709 8.83046 18.7949C6.84098 16.1113 5.3174 13.1656 3.94912 10.1355C3.64091 9.45294 3.86634 9.08766 4.62197 9.0737C5.87942 9.04885 7.13653 9.05225 8.39227 9.07234C8.904 9.08017 9.24231 9.37157 9.43832 9.85157C10.1173 11.5146 10.9506 13.0969 11.9939 14.5641C12.272 14.9546 12.5559 15.3443 12.9596 15.6204C13.4056 15.9254 13.7457 15.825 13.956 15.3297C14.0905 15.0138 14.1486 14.6781 14.1774 14.3404C14.2772 13.1843 14.2892 12.0283 14.1168 10.8766C14.0091 10.1563 13.6013 9.69089 12.8795 9.55472C12.5122 9.48528 12.5659 9.34979 12.7444 9.14111C13.0543 8.77957 13.3465 8.55626 13.9266 8.55626L18.2781 8.55557C18.9643 8.68902 19.1168 8.9954 19.2102 9.68272L19.2143 14.494C19.2072 14.7602 19.3481 15.5486 19.8284 15.7229C20.2125 15.8492 20.4673 15.5425 20.6972 15.2994C21.7398 14.1981 22.4828 12.8974 23.1488 11.5517C23.442 10.9583 23.6961 10.3435 23.9424 9.72834C24.1248 9.27319 24.41 9.04919 24.9259 9.05736L29.1149 9.06179C29.238 9.06179 29.3642 9.06315 29.4864 9.08323C30.1917 9.20408 30.385 9.50638 30.1671 10.192C29.8236 11.2688 29.1549 12.1661 28.5009 13.0655C27.802 14.0272 27.056 14.9573 26.3622 15.9237C25.7267 16.8102 25.778 17.2555 26.5675 18.0231Z" fill="#144890"/>
</svg>
